STARTFONT 2.1
FONT -FontForge-Henny Penny-Book-R-Normal--28-280-72-72-P-160-ISO10646-1
SIZE 28 72 72
FONTBOUNDINGBOX 39 50 -4 -18
COMMENT "Generated by fontforge, http://fontforge.sourceforge.net"
COMMENT "Copyright (c) 2012, Brownfox (gayaneh.b@gmail.com), with Reserved Font Name "Henny Penny""
STARTPROPERTIES 39
FOUNDRY "FontForge"
FAMILY_NAME "Henny Penny"
WEIGHT_NAME "Book"
SLANT "R"
SETWIDTH_NAME "Normal"
ADD_STYLE_NAME ""
PIXEL_SIZE 28
POINT_SIZE 280
RESOLUTION_X 72
RESOLUTION_Y 72
SPACING "P"
AVERAGE_WIDTH 160
CHARSET_REGISTRY "ISO10646"
CHARSET_ENCODING "1"
FONTNAME_REGISTRY ""
CHARSET_COLLECTIONS "ISO10646-1"
FONT_NAME "HennyPenny-Regular"
FACE_NAME "Henny Penny"
COPYRIGHT "Copyright (c) 2012, Brownfox (gayaneh.b@gmail.com), with Reserved Font Name "Henny Penny""
FONT_VERSION "1.001"
FONT_ASCENT 22
FONT_DESCENT 6
UNDERLINE_POSITION -3
UNDERLINE_THICKNESS 2
X_HEIGHT 17
CAP_HEIGHT 20
RAW_ASCENT 799
RAW_DESCENT 200
NORM_SPACE 8
RELATIVE_WEIGHT 40
RELATIVE_SETWIDTH 50
SUPERSCRIPT_X 0
SUPERSCRIPT_Y 9
SUPERSCRIPT_SIZE 16
SUBSCRIPT_X 0
SUBSCRIPT_Y 2
SUBSCRIPT_SIZE 16
AVG_LOWERCASE_WIDTH 142
AVG_UPPERCASE_WIDTH 200
ENDPROPERTIES
CHARS 233
STARTCHAR space
ENCODING 32
SWIDTH 270 0
DWIDTH 8 0
BBX 1 1 0 0
BITMAP
00
ENDCHAR
STARTCHAR exclam
ENCODING 33
SWIDTH 249 0
DWIDTH 7 0
BBX 4 28 2 -1
BITMAP
E0
F0
F0
F0
F0
F0
F0
70
70
70
70
60
60
60
60
60
60
20
20
40
40
00
00
00
60
F0
F0
60
ENDCHAR
STARTCHAR quotedbl
ENCODING 34
SWIDTH 292 0
DWIDTH 8 0
BBX 5 10 1 13
BITMAP
D8
D8
D8
D8
D8
D8
58
58
50
50
ENDCHAR
STARTCHAR numbersign
ENCODING 35
SWIDTH 1030 0
DWIDTH 29 0
BBX 26 32 1 -9
BITMAP
00020000
00020000
00020000
00020000
00042000
00044000
00084000
00084000
00188000
FFFF8000
00317FC0
00230000
00220000
00420000
00440000
00C41C00
00BFE000
3FF80000
61100000
03100000
03300000
06200000
06600000
0C400000
0C400000
08C00000
08800000
01800000
01000000
03000000
02000000
02000000
ENDCHAR
STARTCHAR dollar
ENCODING 36
SWIDTH 799 0
DWIDTH 22 0
BBX 16 31 3 -6
BITMAP
0010
0021
0021
01FF
072E
0E26
0E26
0E46
0F44
0F44
0FC0
07C0
07E0
03F0
01F8
00F8
00FC
213C
211E
211E
210E
620E
620E
720C
F21C
8E38
07E0
0400
0400
0400
0800
ENDCHAR
STARTCHAR percent
ENCODING 37
SWIDTH 789 0
DWIDTH 22 0
BBX 21 26 1 0
BITMAP
1F0020
318040
71C0C0
70C080
70C100
70C300
70C600
70C400
398C00
1F1800
001000
002000
006000
00C000
0087C0
010C60
031830
063830
043838
083038
183038
103830
201870
601C60
400F80
800000
ENDCHAR
STARTCHAR ampersand
ENCODING 38
SWIDTH 773 0
DWIDTH 22 0
BBX 20 27 1 -2
BITMAP
03C000
046000
083000
183000
186000
186000
18E000
19C000
1B8000
1F0040
0E00C0
1E03C0
3E0FC0
3F31C0
7700C0
738080
F38080
F1C080
F1E100
F0F100
F07A00
703E10
781E10
3C1FE0
0FE7E0
0003C0
0001C0
ENDCHAR
STARTCHAR quotesingle
ENCODING 39
SWIDTH 174 0
DWIDTH 5 0
BBX 2 9 1 13
BITMAP
C0
C0
C0
C0
C0
40
40
40
40
ENDCHAR
STARTCHAR parenleft
ENCODING 40
SWIDTH 431 0
DWIDTH 12 0
BBX 12 40 0 -12
BITMAP
0200
0400
0C00
0800
1800
1000
3000
3000
3000
7000
6000
6000
6000
E000
E000
E000
E000
E000
E000
E000
E000
E000
E000
7000
7000
7000
7000
3800
3800
1C00
1C00
0E00
0E00
0700
0300
0380
01C0
00C0
0020
0010
ENDCHAR
STARTCHAR parenright
ENCODING 41
SWIDTH 443 0
DWIDTH 12 0
BBX 12 27 0 -6
BITMAP
3000
1C00
0E00
0700
0380
01C0
01C0
00E0
00E0
00F0
0070
0070
0070
0070
0070
0070
0070
00E0
00E0
00E0
01C0
0180
0380
0700
0E00
1800
E000
ENDCHAR
STARTCHAR asterisk
ENCODING 42
SWIDTH 490 0
DWIDTH 14 0
BBX 11 12 1 14
BITMAP
0400
0600
0600
0660
06E0
62C0
FF00
0300
0D80
1CC0
18E0
0060
ENDCHAR
STARTCHAR plus
ENCODING 43
SWIDTH 440 0
DWIDTH 12 0
BBX 9 15 2 1
BITMAP
0400
0400
0400
0400
0400
0400
0400
FF80
0400
0400
0400
0400
0400
0400
0400
ENDCHAR
STARTCHAR comma
ENCODING 44
SWIDTH 251 0
DWIDTH 7 0
BBX 4 9 2 -4
BITMAP
60
F0
F0
70
30
20
20
40
80
ENDCHAR
STARTCHAR hyphen
ENCODING 45
SWIDTH 436 0
DWIDTH 12 0
BBX 10 1 1 5
BITMAP
FFC0
ENDCHAR
STARTCHAR period
ENCODING 46
SWIDTH 238 0
DWIDTH 7 0
BBX 4 4 1 -1
BITMAP
60
F0
F0
60
ENDCHAR
STARTCHAR slash
ENCODING 47
SWIDTH 690 0
DWIDTH 19 0
BBX 19 26 0 0
BITMAP
000020
000060
000040
000080
000180
000100
000200
000600
000C00
000800
001000
003000
006000
004000
008000
018000
010000
020000
060000
0C0000
080000
100000
300000
200000
400000
800000
ENDCHAR
STARTCHAR zero
ENCODING 48
SWIDTH 723 0
DWIDTH 20 0
BBX 19 20 0 2
BITMAP
03F800
0E0E00
180700
380380
7001C0
7001C0
E001E0
E000E0
E000E0
E000E0
E000E0
E000E0
E000E0
7000E0
7000E0
7801C0
380180
1C0380
0F0600
01F800
ENDCHAR
STARTCHAR one
ENCODING 49
SWIDTH 505 0
DWIDTH 14 0
BBX 14 26 0 -2
BITMAP
0200
0200
0300
0700
0700
0F00
1F00
6700
8380
0380
0380
0380
0380
0180
01C0
01C0
01C0
01C0
01C0
01E0
01E0
01F0
03FC
0700
1C00
2000
ENDCHAR
STARTCHAR two
ENCODING 50
SWIDTH 534 0
DWIDTH 15 0
BBX 15 25 0 -2
BITMAP
0F80
3FE0
61F0
40F0
8078
8078
8078
8070
8070
00E0
00E0
00C0
0180
0300
0600
0C00
1800
2000
F002
3C04
0F84
03F8
01F8
00F0
0030
ENDCHAR
STARTCHAR three
ENCODING 51
SWIDTH 511 0
DWIDTH 14 0
BBX 14 23 0 -2
BITMAP
6000
7FF0
7FE0
7060
6040
4080
4100
0100
0200
0780
00E0
0070
0038
801C
801C
801C
801C
C01C
603C
707C
3FF8
1FF0
07C0
ENDCHAR
STARTCHAR four
ENCODING 52
SWIDTH 712 0
DWIDTH 20 0
BBX 20 27 0 -4
BITMAP
001000
003000
003000
007000
00F000
017000
027000
047000
083000
103800
303800
603800
F03800
7C3800
0F1C00
03FC20
007F40
001FC0
001F80
000E00
000E00
000E00
000E00
000F00
007F80
0000C0
000030
ENDCHAR
STARTCHAR five
ENCODING 53
SWIDTH 757 0
DWIDTH 21 0
BBX 21 26 1 -3
BITMAP
001008
003C10
007F30
004FE0
0087E0
0081E0
0100C0
010000
020000
03F000
00FC00
003E00
001F00
400F00
800700
800780
800780
800780
800700
800700
800F00
C00E00
401E00
707C00
3FF000
0FC000
ENDCHAR
STARTCHAR six
ENCODING 54
SWIDTH 598 0
DWIDTH 17 0
BBX 17 22 0 0
BITMAP
03F800
0F0C00
1C0200
3C0100
380100
780000
700000
F1F000
F61C00
F80E00
F80700
F00300
F00300
F00380
F00380
700380
700300
700300
380600
1C0600
0E1C00
03F000
ENDCHAR
STARTCHAR seven
ENCODING 55
SWIDTH 507 0
DWIDTH 14 0
BBX 14 23 0 -2
BITMAP
001C
FFF8
FFF8
C1F0
4030
4020
8020
8040
0040
0080
0080
0180
0100
0300
0300
0700
0600
0E00
0E00
0E00
1E00
1E00
2000
ENDCHAR
STARTCHAR eight
ENCODING 56
SWIDTH 476 0
DWIDTH 13 0
BBX 13 23 0 -1
BITMAP
0F80
1C60
3820
7820
7810
7820
7C20
7C40
3F80
1F80
0FE0
1FE0
30F0
6078
C038
C038
C018
C018
C018
C018
6030
3060
0F80
ENDCHAR
STARTCHAR nine
ENCODING 57
SWIDTH 601 0
DWIDTH 17 0
BBX 16 21 0 0
BITMAP
0FC0
3870
703C
601C
E01E
E00E
E00F
E00F
E00F
E00F
700F
781F
3C3F
0FCF
000E
001E
001C
001C
4038
30F0
0F80
ENDCHAR
STARTCHAR colon
ENCODING 58
SWIDTH 246 0
DWIDTH 7 0
BBX 4 14 2 -1
BITMAP
60
F0
F0
60
00
00
00
00
00
00
60
F0
F0
60
ENDCHAR
STARTCHAR semicolon
ENCODING 59
SWIDTH 266 0
DWIDTH 7 0
BBX 4 18 2 -5
BITMAP
60
F0
F0
60
00
00
00
00
00
00
60
F0
F0
70
60
60
40
80
ENDCHAR
STARTCHAR less
ENCODING 60
SWIDTH 522 0
DWIDTH 15 0
BBX 12 13 1 2
BITMAP
0030
0060
0180
0300
0C00
1800
6000
F000
1C00
0700
0180
00E0
0010
ENDCHAR
STARTCHAR equal
ENCODING 61
SWIDTH 655 0
DWIDTH 18 0
BBX 16 5 1 5
BITMAP
00FF
7F00
8000
0000
FFFC
ENDCHAR
STARTCHAR greater
ENCODING 62
SWIDTH 533 0
DWIDTH 15 0
BBX 12 13 1 2
BITMAP
E000
1000
0C00
0300
0180
0060
0030
0020
00C0
0180
0200
0C00
3000
ENDCHAR
STARTCHAR question
ENCODING 63
SWIDTH 564 0
DWIDTH 16 0
BBX 15 26 0 -3
BITMAP
07E0
1878
303C
601C
601C
E01E
F01E
F81C
F83C
F83C
7878
78F0
01E0
0380
0600
0C00
1800
1000
1000
1200
1C00
0000
0000
1C00
1C00
1C00
ENDCHAR
STARTCHAR at
ENCODING 64
SWIDTH 898 0
DWIDTH 25 0
BBX 23 28 1 -8
BITMAP
007F80
0180E0
060030
0C0008
18000C
100004
200384
60FB82
438F82
430782
860382
860382
8E0382
8E0382
8E0386
8E0384
8F0784
8F058C
8789F8
43F8F0
41E000
400C00
201E00
201E00
100E00
080600
060C00
01F000
ENDCHAR
STARTCHAR A
ENCODING 65
SWIDTH 784 0
DWIDTH 22 0
BBX 22 25 0 -3
BITMAP
001000
00F000
07F800
007800
00F800
009C00
009C00
009C00
011E00
010E00
010E00
030F00
02EF00
021F80
040780
040780
0C03C0
0803C0
1801C0
F801E0
1E01E0
0201F0
0000F8
0001FC
000600
ENDCHAR
STARTCHAR B
ENCODING 66
SWIDTH 685 0
DWIDTH 19 0
BBX 19 28 0 -4
BITMAP
00FC00
7F1F00
1E0F00
0E0780
0E0780
060780
060700
060700
060600
070C00
073000
07FE00
070700
070380
0701C0
0701E0
0701E0
0700E0
0700E0
0700E0
0701E0
0701C0
0701C0
078380
0FC700
1FFC00
300000
C00000
ENDCHAR
STARTCHAR C
ENCODING 67
SWIDTH 742 0
DWIDTH 21 0
BBX 20 27 0 -3
BITMAP
000040
000040
000040
000040
01FFC0
0783C0
0E00E0
1C0060
380020
780020
780010
700000
F00000
F00000
F00000
F00000
F00010
F00010
F80010
780010
780010
7C0010
3C0020
1E0020
0F0040
07C180
01FC00
ENDCHAR
STARTCHAR D
ENCODING 68
SWIDTH 726 0
DWIDTH 20 0
BBX 20 23 0 -4
BITMAP
01FE00
7E0F80
1E03C0
1C03E0
0C01E0
0C01E0
0C00F0
0C00F0
0C00F0
0E00F0
0E00E0
0E00E0
0E01E0
0E01C0
0E03C0
0F0380
0F0E00
0FF000
1F0000
1C0000
300000
600000
800000
ENDCHAR
STARTCHAR E
ENCODING 69
SWIDTH 557 0
DWIDTH 16 0
BBX 15 26 1 -3
BITMAP
0078
FF88
7C08
3C08
3C08
3C00
3C00
3C00
1C00
1C40
1C40
1FC0
1CC0
1C40
1C40
1C80
1C00
0C00
0C00
0C00
0E02
0E02
0E02
0E06
FFFC
003C
ENDCHAR
STARTCHAR F
ENCODING 70
SWIDTH 533 0
DWIDTH 15 0
BBX 15 25 0 -1
BITMAP
0006
007E
0F86
FE06
1E06
1E04
1E04
0E04
0E00
0E20
0E20
0E60
0FC0
0E40
0620
0620
0620
0700
0700
0700
0700
0700
0700
0F00
7FC0
ENDCHAR
STARTCHAR G
ENCODING 71
SWIDTH 750 0
DWIDTH 21 0
BBX 21 21 0 -1
BITMAP
000008
000010
01F830
0703E0
1E01E0
3C00C0
3800C0
780080
700080
F00000
F00000
F000F0
F03FC0
F001C0
F001C0
F801C0
7801C0
7801C0
3C03E0
1F0400
03F800
ENDCHAR
STARTCHAR H
ENCODING 72
SWIDTH 743 0
DWIDTH 21 0
BBX 21 29 0 -4
BITMAP
700000
1FF000
0F0018
0E00E0
0E1FE0
0E01C0
0E01C0
0E01C0
0E01C0
0E01C0
0E01C0
0E01C0
0E01C0
0E03C0
0FFFC0
0F01C0
0E01C0
0E01C0
0E00C0
0E00C0
0E00C0
0E00C0
0E00C0
0E00C0
0E01E0
0E0FF0
1E0008
7F0000
808000
ENDCHAR
STARTCHAR I
ENCODING 73
SWIDTH 438 0
DWIDTH 12 0
BBX 15 29 -1 -5
BITMAP
78FE
1FE0
0FC0
0780
0780
0780
0700
0700
0700
0700
0700
0700
0700
0700
0700
0700
0600
0600
0600
0600
0600
0600
0600
0600
0600
0F00
0FE0
7000
8000
ENDCHAR
STARTCHAR J
ENCODING 74
SWIDTH 628 0
DWIDTH 18 0
BBX 19 33 0 -7
BITMAP
0000E0
000F00
03FE00
007C00
003C00
003C00
003C00
001C00
001C00
001C00
001C00
001C00
001C00
001C00
001C00
001C00
001C00
001C00
001800
001800
001800
001800
003800
003800
003000
383000
7C3000
FC6000
FC6000
C0C000
C18000
430000
3E0000
ENDCHAR
STARTCHAR K
ENCODING 75
SWIDTH 866 0
DWIDTH 24 0
BBX 25 25 0 -2
BITMAP
03800000
FE0E0000
3E07F000
1E070000
1C040000
1C080000
1C100000
1E200000
1E200000
1E600000
1EF00000
0FF00000
0E780000
0E780200
0E3C0300
0E3C0100
0E1E0180
0E0F0180
0E078180
0E03E300
0E01FF00
0E007C00
0E000000
3F000000
01C00000
ENDCHAR
STARTCHAR L
ENCODING 76
SWIDTH 660 0
DWIDTH 18 0
BBX 17 21 1 0
BITMAP
C00000
3FF000
1F8000
0F0000
0F0000
0F0000
0F0000
0F0000
0F0000
0F0000
0E0000
0E0200
0E0200
0E0200
0E0200
0E0100
0E0100
0E0300
0F0780
3FFF80
E00000
ENDCHAR
STARTCHAR M
ENCODING 77
SWIDTH 1089 0
DWIDTH 31 0
BBX 31 22 0 -2
BITMAP
000001F8
000001C0
00000380
0FC00380
03F00780
01F00780
00F80780
00BC0B80
009E1380
009E1380
008F21C0
008FA1C0
0087C1C0
0087C1C0
008381E0
008180E0
010100E0
E10000F0
F10000F8
FE0001FE
FC000700
78000800
ENDCHAR
STARTCHAR N
ENCODING 78
SWIDTH 799 0
DWIDTH 22 0
BBX 22 27 0 -6
BITMAP
000008
FE07FC
1F00E0
0F8040
0FC040
0BE040
09E040
08F040
08F840
087C40
083E40
081F40
081FC0
080FC0
0807C0
0807C0
0803C0
0801C0
0800C0
080040
080000
080000
080000
180000
1C0000
FE0000
038000
ENDCHAR
STARTCHAR O
ENCODING 79
SWIDTH 747 0
DWIDTH 21 0
BBX 21 21 0 1
BITMAP
01F800
0E0F00
1C0780
3803C0
3001E0
7001E0
7000F0
F000F0
E000F0
E000F8
E00078
F00078
F00070
F00070
7000F0
7800F0
3800E0
3C01C0
1E0180
0F0700
01FC00
ENDCHAR
STARTCHAR P
ENCODING 80
SWIDTH 623 0
DWIDTH 17 0
BBX 17 25 0 -4
BITMAP
007E00
FF8F00
1F0780
0F0380
070380
070380
070380
070380
070700
070700
070E00
07F800
070000
070000
070000
070000
070000
070000
070000
0F0000
0F0000
0F0000
0F8000
1FC000
E03800
ENDCHAR
STARTCHAR Q
ENCODING 81
SWIDTH 804 0
DWIDTH 23 0
BBX 32 34 0 -12
BITMAP
00FE0000
07078000
0C01E000
1800F000
30007800
70007800
70003C00
60003C00
E0003C00
E0001C00
E0001C00
E0001C00
E0001C00
F0001C00
F0001C00
70079C00
7819D800
7810F800
3C207000
1E207000
0F20F800
07E1B800
00FE3C00
00003C00
00003C00
00001E00
00001E01
00001E01
00001F01
00000F81
00000FC3
000007FE
000003FC
000001F8
ENDCHAR
STARTCHAR R
ENCODING 82
SWIDTH 869 0
DWIDTH 24 0
BBX 25 21 0 -1
BITMAP
00FC0000
FF8E0000
3F070000
1F070000
0E078000
0E078000
0E078000
0E070000
060F0000
063E0000
07FE0000
06380000
06380000
061C0000
061C0080
070E0080
070F0080
07078080
0F03E180
7F81FF00
00607E00
ENDCHAR
STARTCHAR S
ENCODING 83
SWIDTH 517 0
DWIDTH 14 0
BBX 15 26 -1 -3
BITMAP
0006
01E4
071C
060C
0E04
0E04
0E04
0F00
0F00
0780
03C0
03E0
01F0
00F8
0078
007C
803C
801E
401E
401E
600E
600E
700E
781C
6C38
43E0
ENDCHAR
STARTCHAR T
ENCODING 84
SWIDTH 659 0
DWIDTH 18 0
BBX 19 29 0 -4
BITMAP
7800E0
FFFFE0
6030E0
603060
403020
403020
203040
203000
203000
203000
007000
007000
007000
007000
007000
007000
007000
007000
007000
007000
007000
007000
007800
007800
00FC00
01FFC0
01C000
060000
080000
ENDCHAR
STARTCHAR U
ENCODING 85
SWIDTH 690 0
DWIDTH 19 0
BBX 22 21 0 1
BITMAP
001000
00E000
0FC000
FF8000
1F9FFC
0F03C0
0F00C0
0F00C0
0F00C0
0F00C0
0F0040
0F0040
0F0040
0F0080
0F0080
078080
078080
03C100
03E300
01FE00
007C00
ENDCHAR
STARTCHAR V
ENCODING 86
SWIDTH 798 0
DWIDTH 22 0
BBX 25 22 0 0
BITMAP
00100000
00E00000
FF800080
0F800300
07800600
03C03C00
01C1F800
01E03000
00E03000
00F02000
00702000
00784000
00784000
003C4000
003C8000
001E8000
001F0000
001F0000
000E0000
000E0000
00060000
00040000
ENDCHAR
STARTCHAR W
ENCODING 87
SWIDTH 1120 0
DWIDTH 31 0
BBX 36 24 -1 -2
BITMAP
0000003800
0000000FF0
0000000700
0000000600
0080000600
0100000400
0700000C00
1F00000800
FF01000800
0F01801000
0781C01000
0783E02000
0382E02000
03C4F02000
03C8704000
01E8784000
01F03C8000
01F03F8000
00E03F0000
00E01F0000
00401E0000
00400E0000
00000C0000
0000040000
ENDCHAR
STARTCHAR X
ENCODING 88
SWIDTH 868 0
DWIDTH 24 0
BBX 25 22 0 -1
BITMAP
00780000
FFE00000
0FE0E000
03E03C00
01F03200
00F02000
00784000
003C4000
003C8000
001F8000
001F0000
001F0000
00178000
00338000
0023C000
0041E000
0080E000
0180F000
07007000
7F807800
0387FE00
00400180
ENDCHAR
STARTCHAR Y
ENCODING 89
SWIDTH 796 0
DWIDTH 22 0
BBX 25 27 0 -3
BITMAP
03C00000
FE006000
1E001F80
0F001000
07802000
03C04000
01C04000
01E08000
00F10000
007F0000
007E0000
003C0000
001C0000
001C0000
001C0000
001C0000
001C0000
001C0000
001C0000
001C0000
001C0000
001C0000
001C0000
003C0000
003E0000
03FE0000
00038000
ENDCHAR
STARTCHAR Z
ENCODING 90
SWIDTH 627 0
DWIDTH 18 0
BBX 17 23 1 -3
BITMAP
601000
7FF000
61F000
41E000
81E000
81E000
83C000
83C000
038000
078000
078000
070000
070200
0F0200
0E0100
0E0100
1E0100
1C0300
1C0380
3C0780
383F80
3FC000
300000
ENDCHAR
STARTCHAR bracketleft
ENCODING 91
SWIDTH 344 0
DWIDTH 10 0
BBX 9 29 0 -6
BITMAP
3E00
3980
3800
3000
3000
3000
7000
7000
7000
7000
7000
7000
7000
7000
7000
E000
E000
E000
E000
E000
E000
E000
E000
E000
E000
F000
F000
F000
7F80
ENDCHAR
STARTCHAR backslash
ENCODING 92
SWIDTH 347 0
DWIDTH 10 0
BBX 9 31 0 -4
BITMAP
8000
8000
4000
4000
4000
6000
2000
2000
2000
1000
1000
1000
1000
0800
0800
0800
0C00
0400
0400
0600
0200
0200
0200
0300
0100
0100
0180
0080
0080
0080
0080
ENDCHAR
STARTCHAR bracketright
ENCODING 93
SWIDTH 334 0
DWIDTH 9 0
BBX 9 26 0 -6
BITMAP
0200
3E00
4E00
0600
0600
0700
0700
0700
0700
0700
0700
0700
0700
0700
0700
0700
0700
0780
0780
0780
0780
0780
0F00
1C00
3000
C000
ENDCHAR
STARTCHAR asciicircum
ENCODING 94
SWIDTH 658 0
DWIDTH 18 0
BBX 16 7 1 15
BITMAP
0100
0380
03C0
07E0
1CF0
303C
C007
ENDCHAR
STARTCHAR underscore
ENCODING 95
SWIDTH 678 0
DWIDTH 19 0
BBX 17 2 1 -9
BITMAP
07FF80
F80000
ENDCHAR
STARTCHAR grave
ENCODING 96
SWIDTH 278 0
DWIDTH 8 0
BBX 5 6 1 21
BITMAP
C0
E0
60
30
18
08
ENDCHAR
STARTCHAR a
ENCODING 97
SWIDTH 527 0
DWIDTH 15 0
BBX 15 20 0 -3
BITMAP
1F00
3380
21C0
60C0
70C0
78E0
38E0
38E0
00E0
1FE0
70F0
60F0
E070
E070
E070
F1F2
7F7A
3C7A
003E
001C
ENDCHAR
STARTCHAR b
ENCODING 98
SWIDTH 582 0
DWIDTH 16 0
BBX 18 32 -2 -1
BITMAP
040000
060000
060000
1E0000
FE0000
0E0000
0E0000
0E0000
0E0000
0E0000
0E0000
0E0000
0E0000
0E0000
060000
060000
060000
063E00
06C700
070380
0703C0
0701C0
0701C0
0701C0
0701C0
0701C0
070380
078380
078700
07FC00
0E0000
300000
ENDCHAR
STARTCHAR c
ENCODING 99
SWIDTH 437 0
DWIDTH 12 0
BBX 11 15 0 2
BITMAP
0F80
13C0
21E0
61E0
41C0
C000
C000
C040
C020
E020
E020
7020
7860
3FC0
0F80
ENDCHAR
STARTCHAR d
ENCODING 100
SWIDTH 523 0
DWIDTH 15 0
BBX 15 27 0 1
BITMAP
0008
0038
0078
01F8
0038
0038
0038
0038
0038
0038
0038
0038
0038
0038
0038
0030
0FF0
3C30
7030
7030
F030
F030
F030
7030
7830
3C78
0FFE
ENDCHAR
STARTCHAR e
ENCODING 101
SWIDTH 434 0
DWIDTH 12 0
BBX 11 15 0 1
BITMAP
0F80
18C0
3060
7060
7060
E060
E0E0
E1C0
FF00
E020
F020
7020
7020
3C60
0F80
ENDCHAR
STARTCHAR f
ENCODING 102
SWIDTH 299 0
DWIDTH 8 0
BBX 14 36 -1 -5
BITMAP
00F0
018C
030C
020C
020C
063C
047C
047C
0478
0C00
0C00
0E20
0FC0
FE00
0E00
0E00
0E00
0E00
0E00
0E00
0E00
0E00
0E00
0E00
0E00
0E00
0E00
0E00
0E00
0E00
0E00
0E00
0F00
1FE0
3000
4000
ENDCHAR
STARTCHAR g
ENCODING 103
SWIDTH 567 0
DWIDTH 16 0
BBX 17 28 0 -11
BITMAP
000E00
003700
004780
0FC780
3C6700
383000
783800
783800
783800
783800
387000
3C6000
0FC000
180000
300000
180000
0FC000
1C7800
381C00
700E00
E00E00
E00E00
E00E00
E00E00
F00C00
F01800
783000
1F8000
ENDCHAR
STARTCHAR h
ENCODING 104
SWIDTH 566 0
DWIDTH 16 0
BBX 17 30 -1 0
BITMAP
020000
060000
1E0000
FE0000
0E0000
0E0000
0E0000
0E0000
0C0000
0C0000
0C0000
0C0000
0C0000
0C0000
0C0000
0C0000
0CF000
0D3800
0E1C00
0E1C00
0C1C00
1C1C00
1C1C00
1C1C00
1C1C00
1C1C00
1C1C00
3C1E00
FC3F80
074000
ENDCHAR
STARTCHAR i
ENCODING 105
SWIDTH 301 0
DWIDTH 8 0
BBX 7 19 1 2
BITMAP
38
38
38
00
04
1C
FC
38
38
38
38
38
38
38
38
38
38
38
FE
ENDCHAR
STARTCHAR j
ENCODING 106
SWIDTH 367 0
DWIDTH 10 0
BBX 12 32 -3 -14
BITMAP
01C0
01C0
01C0
0000
0000
0020
1FE0
01F0
00F0
00F0
00F0
0070
0070
0070
0070
0030
0030
0030
0030
0030
0030
0030
3830
7C30
FC30
F820
C060
8060
8040
80C0
4180
3E00
ENDCHAR
STARTCHAR k
ENCODING 107
SWIDTH 567 0
DWIDTH 16 0
BBX 17 31 -2 -3
BITMAP
020000
060000
3E0000
FE0000
0E0000
0E0000
060000
060000
060000
060000
060000
060000
060000
066000
061F00
061800
062000
064000
06C000
07C000
07E100
076080
077080
077080
073880
071F80
070F00
070000
070000
0F8000
7FF000
ENDCHAR
STARTCHAR l
ENCODING 108
SWIDTH 354 0
DWIDTH 10 0
BBX 11 25 -2 1
BITMAP
0100
0300
0700
0F00
1F00
7F00
CF00
0F00
0700
0700
0700
0700
0700
0700
0700
0700
0700
0300
0300
0300
0300
0380
0380
0380
1FE0
ENDCHAR
STARTCHAR m
ENCODING 109
SWIDTH 708 0
DWIDTH 20 0
BBX 19 12 1 2
BITMAP
180000
F9C700
3BEF80
3CF380
186180
186180
186180
18E380
19F380
7E0780
8100C0
000020
ENDCHAR
STARTCHAR n
ENCODING 110
SWIDTH 584 0
DWIDTH 16 0
BBX 16 18 0 0
BITMAP
0800
1800
3878
78FC
B91C
1A1E
1E0E
1C0E
1C0E
0C0E
0C0E
0C0C
0C0C
0C0C
0C1C
0E7C
3F0E
0003
ENDCHAR
STARTCHAR o
ENCODING 111
SWIDTH 503 0
DWIDTH 14 0
BBX 13 13 1 2
BITMAP
0F80
38E0
7070
7070
F038
F038
F038
F038
F038
7030
7870
3C60
0F80
ENDCHAR
STARTCHAR p
ENCODING 112
SWIDTH 509 0
DWIDTH 14 0
BBX 13 27 0 -12
BITMAP
0800
0800
39E0
FA70
1C38
1C38
1838
1838
1838
1838
1838
1C30
1C60
1FC0
1C00
1C00
1C00
1C00
1C00
1C00
1C00
1C00
1C00
3C00
3C00
FF00
0180
ENDCHAR
STARTCHAR q
ENCODING 113
SWIDTH 505 0
DWIDTH 14 0
BBX 13 26 1 -12
BITMAP
3EF8
71E0
E0E0
E0E0
E0E0
E0E0
E0C0
E0C0
71C0
3EC0
00C0
00C0
00C0
00C0
00C0
00C0
00C0
00C0
00C0
00C0
00C0
00C0
01E0
0FE0
0070
0008
ENDCHAR
STARTCHAR r
ENCODING 114
SWIDTH 414 0
DWIDTH 12 0
BBX 13 19 1 0
BITMAP
01E0
1310
3210
F478
3CF0
3C70
3C00
3C00
3C00
1C00
1C00
1C00
1C00
1C00
1C00
1C00
1E00
3F80
E000
ENDCHAR
STARTCHAR s
ENCODING 115
SWIDTH 482 0
DWIDTH 14 0
BBX 14 21 -1 -3
BITMAP
0008
03F0
0630
0E10
0C10
0E10
0E00
0700
03C0
01E0
00F0
00F8
0878
083C
081C
101C
301C
781C
8838
0438
03E0
ENDCHAR
STARTCHAR t
ENCODING 116
SWIDTH 434 0
DWIDTH 12 0
BBX 12 22 0 0
BITMAP
0100
0100
0300
0300
0700
0600
0FC0
FE00
1E00
1C00
1C00
1C00
3800
3800
3800
3800
3860
3870
3830
1C20
0E20
07C0
ENDCHAR
STARTCHAR u
ENCODING 117
SWIDTH 744 0
DWIDTH 21 0
BBX 21 15 0 1
BITMAP
040100
0C0700
1C3F00
FC0300
0E0300
0E0380
0E0380
0E0380
0E0380
070580
070580
078DF8
07F980
03F800
01E000
ENDCHAR
STARTCHAR v
ENCODING 118
SWIDTH 600 0
DWIDTH 17 0
BBX 17 17 0 -1
BITMAP
030000
0E0000
3E0000
DE0000
0E1F80
0F0400
070400
070800
078800
038800
03D000
01D000
01F000
00E000
00E000
006000
004000
ENDCHAR
STARTCHAR w
ENCODING 119
SWIDTH 745 0
DWIDTH 21 0
BBX 21 15 0 -1
BITMAP
010018
0601E0
1C1040
FC1840
1E3840
1E3C80
1E5C80
0E5E80
0F4E80
0F8F00
078700
078700
030200
030000
020000
ENDCHAR
STARTCHAR x
ENCODING 120
SWIDTH 548 0
DWIDTH 15 0
BBX 16 17 0 1
BITMAP
0080
0700
FE00
1E00
0F7F
0F18
0730
07A0
03C0
03C0
01C0
01C0
02E0
04E0
0870
747E
0180
ENDCHAR
STARTCHAR y
ENCODING 121
SWIDTH 659 0
DWIDTH 18 0
BBX 18 28 0 -13
BITMAP
030000
060040
3C3F80
F80F00
380700
380700
380700
3C0700
1C0700
1C0700
1C0F00
0E0F00
0F1700
07F600
03C600
000600
000600
000600
000C00
000C00
0F0C00
1F0800
171800
271000
203000
102000
18C000
0F8000
ENDCHAR
STARTCHAR z
ENCODING 122
SWIDTH 460 0
DWIDTH 13 0
BBX 12 16 1 0
BITMAP
E000
FFC0
C1C0
8380
8380
8700
8700
0E00
0E00
1C00
3C10
3C10
7810
7870
FFF0
8000
ENDCHAR
STARTCHAR braceleft
ENCODING 123
SWIDTH 460 0
DWIDTH 13 0
BBX 13 36 0 -9
BITMAP
01E0
0310
0700
0600
0600
0700
0700
0700
0700
0700
0780
0780
0780
0700
0700
0E00
7C00
E000
1800
0C00
0600
0600
0700
0700
0700
0700
0700
0700
0700
0700
0700
0710
0788
0790
03F0
01E0
ENDCHAR
STARTCHAR bar
ENCODING 124
SWIDTH 368 0
DWIDTH 10 0
BBX 2 29 5 -5
BITMAP
80
80
80
80
80
80
80
80
80
80
80
80
80
80
80
80
80
80
80
80
80
80
80
80
80
80
40
40
40
ENDCHAR
STARTCHAR braceright
ENCODING 125
SWIDTH 476 0
DWIDTH 13 0
BBX 13 30 0 -7
BITMAP
3E00
7F00
C780
8780
0780
0780
0380
0380
0380
0380
0180
01E8
0030
0020
0060
00E0
00E0
0070
0070
0070
0078
0038
0038
0038
0038
0038
0030
0060
00C0
0700
ENDCHAR
STARTCHAR asciitilde
ENCODING 126
SWIDTH 733 0
DWIDTH 21 0
BBX 18 5 1 5
BITMAP
000040
1F00C0
3FE180
61FF00
803E00
ENDCHAR
STARTCHAR nonbreakingspace
ENCODING 160
SWIDTH 270 0
DWIDTH 8 0
BBX 1 1 0 0
BITMAP
00
ENDCHAR
STARTCHAR exclamdown
ENCODING 161
SWIDTH 247 0
DWIDTH 7 0
BBX 4 30 1 -3
BITMAP
60
F0
F0
60
00
00
00
40
60
60
60
60
60
60
60
60
70
70
70
70
70
70
F0
F0
F0
F0
F0
F0
F0
60
ENDCHAR
STARTCHAR cent
ENCODING 162
SWIDTH 799 0
DWIDTH 22 0
BBX 13 24 5 -6
BITMAP
0800
0800
0800
07C0
1C30
3C30
7438
7478
6278
E230
E200
E200
E100
F108
F108
7910
3CB0
1FE0
0FC0
0040
0040
0040
0040
0020
ENDCHAR
STARTCHAR sterling
ENCODING 163
SWIDTH 799 0
DWIDTH 22 0
BBX 15 26 4 -4
BITMAP
03E0
0E30
0838
1838
3878
38F8
38F8
3870
3C00
3C00
3C00
1FC0
1E00
FF00
0F00
0F80
0780
0780
0380
0382
0382
3F02
43C2
82FE
C43C
7000
ENDCHAR
STARTCHAR currency
ENCODING 164
SWIDTH 732 0
DWIDTH 21 0
BBX 18 20 1 1
BITMAP
000800
000800
801000
43F000
3C1800
300400
200600
400200
400200
400200
400200
400400
600400
200800
383800
1FC600
180300
300180
300040
200000
ENDCHAR
STARTCHAR yen
ENCODING 165
SWIDTH 799 0
DWIDTH 22 0
BBX 21 29 1 -4
BITMAP
00E000
FF8018
1F80E0
0F87C0
078180
03C100
03C100
01E200
01E200
00F400
00FC00
007C00
007C00
003800
003800
07FFF0
003800
003800
003F80
07F800
003800
003800
003800
003800
003800
007C00
007F80
01C000
060000
ENDCHAR
STARTCHAR brokenbar
ENCODING 166
SWIDTH 341 0
DWIDTH 10 0
BBX 1 32 4 -7
BITMAP
80
80
80
80
80
80
80
80
80
80
80
80
00
00
00
80
80
80
80
80
80
80
80
80
80
80
80
80
80
80
80
80
ENDCHAR
STARTCHAR section
ENCODING 167
SWIDTH 546 0
DWIDTH 15 0
BBX 13 32 1 -9
BITMAP
07C0
1860
3070
3070
7070
7070
7870
7800
3E00
3F00
3F80
67C0
C3E0
C0F0
E070
E038
F010
7C10
3E10
1F20
0FC0
03C0
00E0
0060
0030
0030
0010
0010
1C20
1C20
1E40
0F80
ENDCHAR
STARTCHAR dieresis
ENCODING 168
SWIDTH 393 0
DWIDTH 11 0
BBX 7 3 3 18
BITMAP
EE
EE
EE
ENDCHAR
STARTCHAR copyright
ENCODING 169
SWIDTH 1023 0
DWIDTH 29 0
BBX 26 25 1 -4
BITMAP
007F8000
01807000
06000C00
08000600
10020300
20020100
207E0080
40C60080
41820040
83820040
83820040
83800040
83810040
83810040
83C10040
81E30080
C0FE0080
407C0180
60000100
20000300
30000600
1C001C00
0F80F800
03FFE000
00FF0000
ENDCHAR
STARTCHAR ordfeminine
ENCODING 170
SWIDTH 558 0
DWIDTH 16 0
BBX 13 14 2 9
BITMAP
3C00
4600
C300
C300
E300
E300
1F00
7300
E390
C388
C388
E790
FDF0
78E0
ENDCHAR
STARTCHAR guillemotleft
ENCODING 171
SWIDTH 608 0
DWIDTH 17 0
BBX 15 25 1 -7
BITMAP
0004
0004
0004
0044
008C
0088
0188
0318
0718
0E30
1C70
7CF0
F8F8
7C78
3C3C
1E1C
0F0C
070C
0384
0186
00C6
00C2
0060
0020
0020
ENDCHAR
STARTCHAR logicalnot
ENCODING 172
SWIDTH 616 0
DWIDTH 17 0
BBX 14 5 2 7
BITMAP
FFFC
0004
0004
0004
0004
ENDCHAR
STARTCHAR uni00AD
ENCODING 173
SWIDTH 436 0
DWIDTH 12 0
BBX 10 1 1 5
BITMAP
FFC0
ENDCHAR
STARTCHAR registered
ENCODING 174
SWIDTH 1048 0
DWIDTH 29 0
BBX 27 26 1 -6
BITMAP
003FC000
01C07000
06000C00
08000200
13FF8100
20E3C080
2061C040
4061C040
4061C040
8061C020
80618020
80670020
807E0020
806E0820
80670820
80670820
80738820
4071F840
40F8F040
63FC0080
20020080
10000100
08000200
06000C00
01C03000
003FC000
ENDCHAR
STARTCHAR macron
ENCODING 175
SWIDTH 382 0
DWIDTH 11 0
BBX 8 1 1 22
BITMAP
FF
ENDCHAR
STARTCHAR degree
ENCODING 176
SWIDTH 346 0
DWIDTH 10 0
BBX 7 7 1 20
BITMAP
3C
7E
C6
82
82
46
3C
ENDCHAR
STARTCHAR plusminus
ENCODING 177
SWIDTH 580 0
DWIDTH 16 0
BBX 14 10 1 4
BITMAP
0100
0100
0100
0300
7FFC
0100
0100
0100
0000
FFF0
ENDCHAR
STARTCHAR twosuperior
ENCODING 178
SWIDTH 365 0
DWIDTH 10 0
BBX 9 14 1 11
BITMAP
1E00
2700
4380
0380
0300
0300
0600
0C00
1000
E000
7080
3F00
0E00
0C00
ENDCHAR
STARTCHAR threesuperior
ENCODING 179
SWIDTH 371 0
DWIDTH 10 0
BBX 10 14 0 10
BITMAP
7E00
7C00
4400
4800
0E00
1F00
0380
0180
81C0
81C0
8180
4180
6300
3E00
ENDCHAR
STARTCHAR acute
ENCODING 180
SWIDTH 234 0
DWIDTH 7 0
BBX 4 6 1 21
BITMAP
30
30
60
60
C0
80
ENDCHAR
STARTCHAR mu
ENCODING 181
SWIDTH 634 0
DWIDTH 18 0
BBX 16 24 1 -9
BITMAP
C000
C020
C0E0
C0E0
C070
C070
C070
E072
E071
E071
F071
F8B9
EF1F
E00E
E000
E000
E000
E000
E000
E000
E000
F000
F000
7000
ENDCHAR
STARTCHAR paragraph
ENCODING 182
SWIDTH 707 0
DWIDTH 20 0
BBX 20 33 0 -10
BITMAP
000060
000380
03FF00
1F8700
7F8700
7F8600
FF8600
FF8600
FF8600
FF8600
FF8600
7F8600
3F8600
1F8600
038600
038600
038600
038600
038600
038600
038600
018700
018700
018700
018700
018700
018780
0187F0
038000
038000
038000
0E0000
300000
ENDCHAR
STARTCHAR periodcentered
ENCODING 183
SWIDTH 238 0
DWIDTH 7 0
BBX 4 4 1 8
BITMAP
60
F0
F0
60
ENDCHAR
STARTCHAR cedilla
ENCODING 184
SWIDTH 332 0
DWIDTH 9 0
BBX 6 9 2 -7
BITMAP
20
20
20
38
3C
1C
8C
9C
70
ENDCHAR
STARTCHAR onesuperior
ENCODING 185
SWIDTH 336 0
DWIDTH 9 0
BBX 8 13 1 12
BITMAP
04
04
0C
1C
6C
0C
0C
0C
0C
0C
1C
FE
03
ENDCHAR
STARTCHAR ordmasculine
ENCODING 186
SWIDTH 503 0
DWIDTH 14 0
BBX 12 13 1 8
BITMAP
1F80
21C0
40E0
4070
C030
C030
C030
C030
C030
6030
7020
3860
0F80
ENDCHAR
STARTCHAR guillemotright
ENCODING 187
SWIDTH 778 0
DWIDTH 22 0
BBX 18 26 2 -8
BITMAP
020000
010000
818000
808000
804000
C06000
603800
701C00
3C0F00
1FC780
07F3C0
03C780
038F00
071E00
0E3800
1C3000
187000
30E000
20C000
60C000
418000
418000
810000
010000
010000
010000
ENDCHAR
STARTCHAR onequarter
ENCODING 188
SWIDTH 876 0
DWIDTH 25 0
BBX 23 27 1 -1
BITMAP
000010
040020
040060
0C0040
1C0080
6C0180
0C0300
0C0200
0C0400
0C0C00
0C0880
1C1080
FE30C0
0761C0
0041C0
0082C0
0182C0
0104C8
0204C8
0608D8
0C08F8
081FF8
1000E0
3000E0
2000F0
4003FE
000200
ENDCHAR
STARTCHAR onehalf
ENCODING 189
SWIDTH 762 0
DWIDTH 21 0
BBX 20 26 1 0
BITMAP
000010
040020
040060
0C0040
1C0080
6C0180
0C0300
0C0200
0C0400
0C0C00
0C0800
1C1000
FE33C0
0764E0
004870
008070
018060
0100E0
0200C0
060180
0C0200
081C00
100E10
3007E0
2003C0
400180
ENDCHAR
STARTCHAR threequarters
ENCODING 190
SWIDTH 922 0
DWIDTH 26 0
BBX 25 27 0 -1
BITMAP
00000400
00000400
7E000800
7C001800
44001000
48002000
0E006000
1F00C000
03808000
01810000
81C31000
81C61000
81843000
41883000
63187000
3E10B000
0020B000
00613200
00C13200
00823A00
01023F00
0307FF00
02001800
04001C00
08001E00
08007F80
00008000
ENDCHAR
STARTCHAR questiondown
ENCODING 191
SWIDTH 571 0
DWIDTH 16 0
BBX 15 25 1 -3
BITMAP
0180
03C0
03C0
03C0
0180
0000
0300
0080
0080
0080
0100
0300
0600
1C78
3CFC
78FC
78FC
F87E
F81C
F00C
F80C
F80C
7C08
3E10
0FE0
ENDCHAR
STARTCHAR Agrave
ENCODING 192
SWIDTH 784 0
DWIDTH 22 0
BBX 22 33 0 -3
BITMAP
0C0000
0E0000
060000
030000
018000
008000
000000
000000
001000
00F000
07F800
007800
00F800
009C00
009C00
009C00
011E00
010E00
010E00
030F00
02EF00
021F80
040780
040780
0C03C0
0803C0
1801C0
F801E0
1E01E0
0201F0
0000F8
0001FC
000600
ENDCHAR
STARTCHAR Aacute
ENCODING 193
SWIDTH 784 0
DWIDTH 22 0
BBX 22 33 0 -3
BITMAP
001000
003000
003000
006000
004000
008000
000000
000000
001000
00F000
07F800
007800
00F800
009C00
009C00
009C00
011E00
010E00
010E00
030F00
02EF00
021F80
040780
040780
0C03C0
0803C0
1801C0
F801E0
1E01E0
0201F0
0000F8
0001FC
000600
ENDCHAR
STARTCHAR Acircumflex
ENCODING 194
SWIDTH 784 0
DWIDTH 22 0
BBX 22 33 0 -3
BITMAP
002000
007000
007800
009C00
010600
020300
040000
000000
001000
00F000
07F800
007800
00F800
009C00
009C00
009C00
011E00
010E00
010E00
030F00
02EF00
021F80
040780
040780
0C03C0
0803C0
1801C0
F801E0
1E01E0
0201F0
0000F8
0001FC
000600
ENDCHAR
STARTCHAR Atilde
ENCODING 195
SWIDTH 784 0
DWIDTH 22 0
BBX 22 32 0 -3
BITMAP
018000
06C000
046200
043C00
001C00
000000
000000
001000
00F000
07F800
007800
00F800
009C00
009C00
009C00
011E00
010E00
010E00
030F00
02EF00
021F80
040780
040780
0C03C0
0803C0
1801C0
F801E0
1E01E0
0201F0
0000F8
0001FC
000600
ENDCHAR
STARTCHAR Adieresis
ENCODING 196
SWIDTH 784 0
DWIDTH 22 0
BBX 22 31 0 -3
BITMAP
018000
03DC00
03DC00
039C00
000000
000000
001000
00F000
07F800
007800
00F800
009C00
009C00
009C00
011E00
010E00
010E00
030F00
02EF00
021F80
040780
040780
0C03C0
0803C0
1801C0
F801E0
1E01E0
0201F0
0000F8
0001FC
000600
ENDCHAR
STARTCHAR Aring
ENCODING 197
SWIDTH 784 0
DWIDTH 22 0
BBX 22 33 0 -3
BITMAP
00F000
019000
010800
010800
019800
01F000
00E000
000000
001000
00F000
07F800
007800
00F800
009C00
009C00
009C00
011E00
010E00
010E00
030F00
02EF00
021F80
040780
040780
0C03C0
0803C0
1801C0
F801E0
1E01E0
0201F0
0000F8
0001FC
000600
ENDCHAR
STARTCHAR AE
ENCODING 198
SWIDTH 1172 0
DWIDTH 33 0
BBX 33 28 0 -4
BITMAP
0000007000
000003F000
00007E3000
001FF02000
0001F02000
0001702000
0001702000
0003700000
0002704000
0002704000
0004784000
000478C000
00087FC000
0008784000
0008784100
0010782100
001FF80100
00303C0100
00203C0300
00403C0300
00403C0780
00803E1F80
00803FF000
01003F0000
0300380000
0700600000
1F00C00000
FFC3000000
ENDCHAR
STARTCHAR Ccedilla
ENCODING 199
SWIDTH 742 0
DWIDTH 21 0
BBX 20 36 0 -12
BITMAP
000040
000040
000040
000040
01FFC0
0783C0
0E00E0
1C0060
380020
780020
780010
700000
F00000
F00000
F00000
F00000
F00010
F00010
F80010
F80010
780010
7C0010
3C0020
1E0020
0F0040
07C180
00FE00
001000
001000
001800
003C00
000E00
000E00
008E00
004C00
003800
ENDCHAR
STARTCHAR Egrave
ENCODING 200
SWIDTH 557 0
DWIDTH 16 0
BBX 15 33 1 -3
BITMAP
6000
7000
3000
1800
0C00
0400
0000
0078
FF88
7C08
3C08
3C08
3C00
3C00
3C00
1C00
1C40
1C40
1FC0
1CC0
1C40
1C40
1C80
1C00
0C00
0C00
0C00
0E02
0E02
0E02
0E06
FFFC
003C
ENDCHAR
STARTCHAR Eacute
ENCODING 201
SWIDTH 557 0
DWIDTH 16 0
BBX 15 33 1 -3
BITMAP
00C0
00C0
0180
0180
0300
0200
0000
0078
FF88
7C08
3C08
3C08
3C00
3C00
3C00
1C00
1C40
1C40
1FC0
1CC0
1C40
1C40
1C80
1C00
0C00
0C00
0C00
0E02
0E02
0E02
0E06
FFFC
003C
ENDCHAR
STARTCHAR Ecircumflex
ENCODING 202
SWIDTH 557 0
DWIDTH 16 0
BBX 15 34 1 -3
BITMAP
0200
0300
0580
0CC0
0860
1030
2000
0000
0078
FF88
7C08
3C08
3C08
3C00
3C00
3C00
1C00
1C40
1C40
1FC0
1CC0
1C40
1C40
1C80
1C00
0C00
0C00
0C00
0E02
0E02
0E02
0E06
FFFC
003C
ENDCHAR
STARTCHAR Edieresis
ENCODING 203
SWIDTH 557 0
DWIDTH 16 0
BBX 15 31 1 -3
BITMAP
1C00
3DC0
3DC0
19C0
0000
0078
FF88
7C08
3C08
3C08
3C00
3C00
3C00
1C00
1C40
1C40
1FC0
1CC0
1C40
1C40
1C80
1C00
0C00
0C00
0C00
0E02
0E02
0E02
0E06
FFFC
003C
ENDCHAR
STARTCHAR Igrave
ENCODING 204
SWIDTH 438 0
DWIDTH 12 0
BBX 15 36 -1 -5
BITMAP
1800
1C00
0E00
0600
0300
0100
0000
78FE
1FE0
0FC0
0780
0780
0780
0700
0700
0700
0700
0700
0700
0700
0700
0700
0700
0600
0600
0600
0600
0600
0600
0600
0600
0600
0F00
0FE0
7000
8000
ENDCHAR
STARTCHAR Iacute
ENCODING 205
SWIDTH 438 0
DWIDTH 12 0
BBX 15 36 -1 -5
BITMAP
0020
0070
0060
00C0
0080
0100
0000
78FE
1FE0
0FC0
0780
0780
0780
0700
0700
0700
0700
0700
0700
0700
0700
0700
0700
0600
0600
0600
0600
0600
0600
0600
0600
0600
0F00
0FE0
7000
8000
ENDCHAR
STARTCHAR Icircumflex
ENCODING 206
SWIDTH 438 0
DWIDTH 12 0
BBX 15 37 -1 -5
BITMAP
0100
0180
03C0
0260
0430
0818
1000
0000
78FE
1FE0
0FC0
0780
0780
0780
0700
0700
0700
0700
0700
0700
0700
0700
0700
0700
0600
0600
0600
0600
0600
0600
0600
0600
0600
0F00
0FE0
7000
8000
ENDCHAR
STARTCHAR Idieresis
ENCODING 207
SWIDTH 438 0
DWIDTH 12 0
BBX 15 34 -1 -5
BITMAP
0C00
1EE0
1EE0
1CE0
0000
78FE
1FE0
0FC0
0780
0780
0780
0700
0700
0700
0700
0700
0700
0700
0700
0700
0700
0600
0600
0600
0600
0600
0600
0600
0600
0600
0F00
0FE0
7000
8000
ENDCHAR
STARTCHAR Eth
ENCODING 208
SWIDTH 730 0
DWIDTH 20 0
BBX 21 23 0 -6
BITMAP
01FE00
3F0F80
0703E0
0701F0
0701F0
0700F8
0700F8
0700F8
0700F8
0700F8
7FE0F8
0700F8
0700F8
0700F0
0701F0
0701E0
0703C0
070780
0F8E00
0FF000
1C0000
300000
C00000
ENDCHAR
STARTCHAR Ntilde
ENCODING 209
SWIDTH 799 0
DWIDTH 22 0
BBX 22 33 0 -6
BITMAP
003800
005C00
004E40
0087C0
000380
000000
000008
FE07FC
1F00E0
0F8040
0FC040
0BE040
09E040
08F040
08F840
087C40
083E40
081F40
081FC0
080FC0
0807C0
0807C0
0803C0
0801C0
0800C0
080040
080000
080000
080000
180000
1C0000
FE0000
038000
ENDCHAR
STARTCHAR Ograve
ENCODING 210
SWIDTH 747 0
DWIDTH 21 0
BBX 21 29 0 1
BITMAP
040000
0E0000
070000
038000
018000
008000
004000
000000
01F800
0E0F00
1C0780
3803C0
3001E0
7001E0
7000F0
F000F0
E000F0
E000F8
E00078
F00078
F00070
F00070
7000F0
7800F0
3800E0
3C01C0
1E0180
0F0700
01FC00
ENDCHAR
STARTCHAR Oacute
ENCODING 211
SWIDTH 747 0
DWIDTH 21 0
BBX 21 29 0 1
BITMAP
001000
003000
003000
006000
004000
008000
000000
000000
01F800
0E0F00
1C0780
3803C0
3001E0
7001E0
7000F0
F000F0
E000F0
E000F8
E00078
F00078
F00070
F00070
7000F0
7800F0
3800E0
3C01C0
1E0180
0F0700
01FC00
ENDCHAR
STARTCHAR Ocircumflex
ENCODING 212
SWIDTH 747 0
DWIDTH 21 0
BBX 21 29 0 1
BITMAP
004000
006000
00B000
011800
030C00
020600
0C0000
000000
01F800
0E0F00
1C0780
3803C0
3001E0
7001E0
7000F0
F000F0
E000F0
E000F8
E00078
F00078
F00070
F00070
7000F0
7800F0
3800E0
3C01C0
1E0180
0F0700
01FC00
ENDCHAR
STARTCHAR Otilde
ENCODING 213
SWIDTH 747 0
DWIDTH 21 0
BBX 21 27 0 1
BITMAP
01C000
02E000
027200
043E00
001C00
000000
01F800
0E0F00
1C0780
3803C0
3001E0
7001E0
7000F0
F000F0
E000F0
E000F8
E00078
F00078
F00070
F00070
7000F0
7800F0
3800E0
3C01C0
1E0180
0F0700
01FC00
ENDCHAR
STARTCHAR Odieresis
ENCODING 214
SWIDTH 747 0
DWIDTH 21 0
BBX 21 27 0 1
BITMAP
038000
03D800
03DC00
039800
000000
000000
01F800
0E0F00
1C0780
3803C0
3001E0
7001E0
7000F0
F000F0
E000F0
E000F8
E00078
F00078
F00070
F00070
7000F0
7800F0
3800E0
3C01C0
1E0180
0F0700
01FC00
ENDCHAR
STARTCHAR multiply
ENCODING 215
SWIDTH 541 0
DWIDTH 15 0
BBX 13 17 1 0
BITMAP
0010
0018
0030
0020
2040
1080
0900
0700
0700
0580
0840
1820
1000
2000
6000
4000
8000
ENDCHAR
STARTCHAR Oslash
ENCODING 216
SWIDTH 747 0
DWIDTH 21 0
BBX 21 26 0 -1
BITMAP
000010
000030
000020
01FC40
060FC0
1C0380
3801E0
3003E0
7002F0
7004F0
F00CF8
E01878
E03078
E02078
F06078
F0C078
F18078
710070
7A0070
3E00E0
3C00E0
1E01C0
1F0700
11FC00
200000
400000
ENDCHAR
STARTCHAR Ugrave
ENCODING 217
SWIDTH 690 0
DWIDTH 19 0
BBX 22 30 0 1
BITMAP
018000
01C000
00E000
006000
003000
001000
000000
000000
000000
001000
00E000
0FC000
FF8000
1F9FFC
0F03C0
0F00C0
0F00C0
0F00C0
0F00C0
0F0040
0F0040
0F0040
0F0080
0F0080
078080
078080
03C100
03E300
01FE00
007C00
ENDCHAR
STARTCHAR Uacute
ENCODING 218
SWIDTH 690 0
DWIDTH 19 0
BBX 22 26 0 1
BITMAP
0000C0
0000C0
000180
000300
000300
001200
00E000
0FC000
FF8000
1F9FFC
0F03C0
0F00C0
0F00C0
0F00C0
0F00C0
0F0040
0F0040
0F0040
0F0080
0F0080
078080
078080
03C100
03E300
01FE00
007C00
ENDCHAR
STARTCHAR Ucircumflex
ENCODING 219
SWIDTH 690 0
DWIDTH 19 0
BBX 22 28 0 1
BITMAP
001000
001800
002C00
004600
00C300
008180
030000
001000
00E000
0FC000
FF8000
1F9FFC
0F03C0
0F00C0
0F00C0
0F00C0
0F00C0
0F0040
0F0040
0F0040
0F0080
0F0080
078080
078080
03C100
03E300
01FE00
007C00
ENDCHAR
STARTCHAR Udieresis
ENCODING 220
SWIDTH 690 0
DWIDTH 19 0
BBX 22 27 0 1
BITMAP
00E000
01E600
01EE00
00EE00
000000
000000
001000
00E000
0FC000
FF8000
1F9FFC
0F03C0
0F00C0
0F00C0
0F00C0
0F00C0
0F0040
0F0040
0F0040
0F0080
0F0080
078080
078080
03C100
03E300
01FE00
007C00
ENDCHAR
STARTCHAR Yacute
ENCODING 221
SWIDTH 796 0
DWIDTH 22 0
BBX 25 33 0 -3
BITMAP
0000C000
0001C000
00018000
00030000
00030000
00020000
03C00000
FE006000
1E001F80
0F001000
07802000
03C04000
01C04000
01E08000
00F10000
007F0000
007E0000
003C0000
001C0000
001C0000
001C0000
001C0000
001C0000
001C0000
001C0000
001C0000
001C0000
001C0000
001C0000
003C0000
003E0000
03FE0000
00038000
ENDCHAR
STARTCHAR Thorn
ENCODING 222
SWIDTH 479 0
DWIDTH 13 0
BBX 13 27 1 -2
BITMAP
FE00
7800
3800
3800
3800
3800
3FC0
38E0
3070
3078
3078
3078
3078
3070
30E0
3FC0
3000
3000
3000
3000
3000
3000
3000
3000
7800
7800
FE00
ENDCHAR
STARTCHAR germandbls
ENCODING 223
SWIDTH 591 0
DWIDTH 17 0
BBX 17 30 -1 -3
BITMAP
0F0000
11C000
20C000
20E000
60E000
60E000
60E000
60C000
60C000
608000
610000
720000
37E000
30FC00
303E00
301F00
380F00
380780
180780
1C0380
1C0380
1C0380
1C0180
0E0180
0E6180
0EE300
1F7200
1C7C00
600000
800000
ENDCHAR
STARTCHAR agrave
ENCODING 224
SWIDTH 527 0
DWIDTH 15 0
BBX 15 27 0 -3
BITMAP
C000
6000
7000
3800
1800
0800
0000
1F00
3380
21C0
60C0
70C0
78E0
38E0
38E0
00E0
1FE0
70F0
60F0
E070
E070
E070
F1F2
7F7A
3C7A
003E
001C
ENDCHAR
STARTCHAR aacute
ENCODING 225
SWIDTH 527 0
DWIDTH 15 0
BBX 15 27 0 -3
BITMAP
00C0
00C0
0180
0300
0300
0200
0000
1F00
3380
21C0
60C0
70C0
78E0
38E0
38E0
00E0
1FE0
70F0
60F0
E070
E070
E070
F1F2
7F7A
3C7A
003E
001C
ENDCHAR
STARTCHAR acircumflex
ENCODING 226
SWIDTH 527 0
DWIDTH 15 0
BBX 15 27 0 -3
BITMAP
0200
0300
0580
08C0
1860
1030
6000
1F00
3380
21C0
60C0
70C0
78E0
38E0
38E0
00E0
1FE0
70F0
60F0
E070
E070
E070
F1F2
7F7A
3C7A
003E
001C
ENDCHAR
STARTCHAR atilde
ENCODING 227
SWIDTH 527 0
DWIDTH 15 0
BBX 15 26 0 -3
BITMAP
0E00
1700
2390
21F0
00E0
0000
1F00
3380
21C0
60C0
70C0
78E0
38E0
38E0
00E0
1FE0
70F0
60F0
E070
E070
E070
F1F2
7F7A
3C7A
003E
001C
ENDCHAR
STARTCHAR adieresis
ENCODING 228
SWIDTH 527 0
DWIDTH 15 0
BBX 15 24 0 -3
BITMAP
1DC0
1DC0
1DC0
0000
1F00
3380
21C0
60C0
70C0
78E0
38E0
38E0
00E0
1FE0
70F0
60F0
E070
E070
E070
F1F2
7F7A
3C7A
003E
001C
ENDCHAR
STARTCHAR aring
ENCODING 229
SWIDTH 527 0
DWIDTH 15 0
BBX 15 28 0 -3
BITMAP
0700
0880
1080
1080
1880
0F80
0F00
0000
1F00
3380
21C0
60C0
70C0
78E0
38E0
38E0
00E0
1FE0
70F0
60F0
E070
E070
E070
F1F2
7F7A
3C7A
003E
001C
ENDCHAR
STARTCHAR ae
ENCODING 230
SWIDTH 700 0
DWIDTH 20 0
BBX 19 19 0 -2
BITMAP
000F00
003380
3C41C0
6641C0
4281C0
6381C0
7381C0
638380
0F8700
13FC00
638000
618040
C18020
C1C020
C3E060
E7F0C0
FEFFC0
7C7F80
383F00
ENDCHAR
STARTCHAR ccedilla
ENCODING 231
SWIDTH 437 0
DWIDTH 12 0
BBX 11 23 0 -6
BITMAP
0F80
13C0
21E0
61E0
41C0
C000
C000
C040
C020
E020
E020
7020
7860
3FC0
0F80
0400
0600
0780
0380
01C0
1180
1180
0F00
ENDCHAR
STARTCHAR egrave
ENCODING 232
SWIDTH 434 0
DWIDTH 12 0
BBX 11 23 0 1
BITMAP
6000
3000
3800
1800
0C00
0400
0000
0000
0F80
18C0
3060
7060
7060
E060
E0E0
E1C0
FF00
E020
F020
7020
7020
3C60
0F80
ENDCHAR
STARTCHAR eacute
ENCODING 233
SWIDTH 434 0
DWIDTH 12 0
BBX 11 22 0 1
BITMAP
00C0
0180
0180
0300
0300
0200
0000
0F80
18C0
3060
7060
7060
E060
E0E0
E1C0
FF00
E020
F020
7020
7020
3C60
0F80
ENDCHAR
STARTCHAR ecircumflex
ENCODING 234
SWIDTH 434 0
DWIDTH 12 0
BBX 12 24 0 1
BITMAP
0200
0700
0780
09C0
10E0
2030
4000
0000
0000
0F80
18C0
3060
7060
7060
E060
E0E0
E1C0
FF00
E020
F020
7020
7020
3C60
0F80
ENDCHAR
STARTCHAR edieresis
ENCODING 235
SWIDTH 434 0
DWIDTH 12 0
BBX 11 20 0 1
BITMAP
0CC0
0EE0
0CC0
0000
0000
0F80
18C0
3060
7060
7060
E060
E0E0
E1C0
FF00
E020
F020
7020
7020
3C60
0F80
ENDCHAR
STARTCHAR igrave
ENCODING 236
SWIDTH 301 0
DWIDTH 8 0
BBX 9 24 -1 2
BITMAP
8000
C000
E000
7000
3000
1800
0000
0000
0000
0100
0700
3F00
0E00
0E00
0E00
0E00
0E00
0E00
0E00
0E00
0E00
0E00
0E00
3F80
ENDCHAR
STARTCHAR iacute
ENCODING 237
SWIDTH 301 0
DWIDTH 8 0
BBX 7 23 1 2
BITMAP
0C
0C
18
30
30
20
00
00
04
1C
FC
38
38
38
38
38
38
38
38
38
38
38
FE
ENDCHAR
STARTCHAR icircumflex
ENCODING 238
SWIDTH 301 0
DWIDTH 8 0
BBX 11 23 -1 2
BITMAP
0400
0C00
1E00
1300
21C0
4060
8000
0000
0100
0700
3F00
0E00
0E00
0E00
0E00
0E00
0E00
0E00
0E00
0E00
0E00
0E00
3F80
ENDCHAR
STARTCHAR idieresis
ENCODING 239
SWIDTH 301 0
DWIDTH 8 0
BBX 7 20 1 2
BITMAP
66
EE
66
00
00
04
1C
FC
38
38
38
38
38
38
38
38
38
38
38
FE
ENDCHAR
STARTCHAR eth
ENCODING 240
SWIDTH 476 0
DWIDTH 13 0
BBX 15 26 -2 -3
BITMAP
0020
0020
0020
0FC0
30E0
4130
8130
0218
021C
000C
000C
000E
000E
01EE
071E
060E
0E0E
0E06
0E06
0E06
0E06
0E06
0E04
0704
0388
01F0
ENDCHAR
STARTCHAR ntilde
ENCODING 241
SWIDTH 584 0
DWIDTH 16 0
BBX 16 23 0 0
BITMAP
01C0
02E0
0272
043E
001C
0800
1800
3878
78FC
B91C
1A1E
1E0E
1C0E
1C0E
0C0E
0C0E
0C0C
0C0C
0C0C
0C1C
0E7C
3F0E
0003
ENDCHAR
STARTCHAR ograve
ENCODING 242
SWIDTH 400 0
DWIDTH 11 0
BBX 19 22 1 5
BITMAP
0001C0
0001C0
0001E0
C000C0
C00040
E00040
700080
300080
180100
000200
000400
001800
1FE000
738000
718000
E1C000
E1C000
E1C000
E1C000
E1C000
738000
1E0000
ENDCHAR
STARTCHAR oacute
ENCODING 243
SWIDTH 400 0
DWIDTH 11 0
BBX 19 22 1 5
BITMAP
0001C0
0001C0
0001E0
0000C0
018040
030040
030080
060080
060100
040200
000400
001800
1FE000
738000
718000
E1C000
E1C000
E1C000
E1C000
E1C000
738000
1E0000
ENDCHAR
STARTCHAR ocircumflex
ENCODING 244
SWIDTH 400 0
DWIDTH 11 0
BBX 19 22 1 5
BITMAP
0001C0
0001C0
0001E0
0400C0
0C0040
1E0040
130080
21C080
406100
800200
000400
001800
1FE000
738000
718000
E1C000
E1C000
E1C000
E1C000
E1C000
738000
1E0000
ENDCHAR
STARTCHAR otilde
ENCODING 245
SWIDTH 400 0
DWIDTH 11 0
BBX 19 22 1 5
BITMAP
0001C0
0001C0
0001E0
0000C0
000040
000040
180080
2E0080
472100
43E200
01C400
001800
1FE000
738000
718000
E1C000
E1C000
E1C000
E1C000
E1C000
738000
1E0000
ENDCHAR
STARTCHAR odieresis
ENCODING 246
SWIDTH 400 0
DWIDTH 11 0
BBX 19 22 1 5
BITMAP
0001C0
0001C0
0001E0
0000C0
000040
000040
000080
198080
3B8100
198200
000400
001800
1FE000
738000
718000
E1C000
E1C000
E1C000
E1C000
E1C000
738000
1E0000
ENDCHAR
STARTCHAR divide
ENCODING 247
SWIDTH 592 0
DWIDTH 17 0
BBX 14 10 1 3
BITMAP
0700
0700
0700
0000
0000
FFFC
0000
0700
0700
0700
ENDCHAR
STARTCHAR oslash
ENCODING 248
SWIDTH 396 0
DWIDTH 11 0
BBX 10 16 0 1
BITMAP
0200
0400
1E00
7780
6580
E9C0
C9C0
C9C0
E9C0
F380
7300
3E00
3000
2000
2000
2000
ENDCHAR
STARTCHAR ugrave
ENCODING 249
SWIDTH 744 0
DWIDTH 21 0
BBX 21 21 0 1
BITMAP
020000
030000
038000
01C000
00C000
004000
042100
0C0700
1C3F00
FC0300
0E0300
0E0380
0E0380
0E0380
0E0380
070580
070580
078DF8
07F980
03F800
01E000
ENDCHAR
STARTCHAR uacute
ENCODING 250
SWIDTH 744 0
DWIDTH 21 0
BBX 21 21 0 1
BITMAP
001000
003000
007000
006000
004000
008000
040100
0C0700
1C3F00
FC0300
0E0300
0E0380
0E0380
0E0380
0E0380
070580
070580
078DF8
07F980
03F800
01E000
ENDCHAR
STARTCHAR ucircumflex
ENCODING 251
SWIDTH 744 0
DWIDTH 21 0
BBX 21 22 0 1
BITMAP
008000
00C000
016000
033000
021800
040C00
080000
040100
0C0700
1C3F00
FC0300
0E0300
0E0380
0E0380
0E0380
0E0380
070580
070580
078DF8
07F980
03F800
01E000
ENDCHAR
STARTCHAR udieresis
ENCODING 252
SWIDTH 744 0
DWIDTH 21 0
BBX 21 19 0 1
BITMAP
01DC00
01DC00
01DC00
000000
040100
0C0700
1C3F00
FC0300
0E0300
0E0380
0E0380
0E0380
0E0380
070580
070580
078DF8
07F980
03F800
01E000
ENDCHAR
STARTCHAR yacute
ENCODING 253
SWIDTH 659 0
DWIDTH 18 0
BBX 18 33 0 -13
BITMAP
000C00
000C00
001800
003000
003000
032000
060040
3C3F80
F80F00
380700
380700
380700
3C0700
1C0700
1C0700
1C0F00
0E0F00
0F1700
07F600
03C600
000600
000600
000600
000C00
000C00
0F0C00
1F0800
171800
271000
203000
102000
18C000
0F8000
ENDCHAR
STARTCHAR thorn
ENCODING 254
SWIDTH 514 0
DWIDTH 14 0
BBX 16 40 -2 -17
BITMAP
0600
1C00
FC00
1C00
1C00
1C00
1C00
1C00
0C00
0DF0
0E38
0C1C
0C1E
0C0E
0C0E
0C0F
0C0F
0C0F
0E0F
0E0F
0E1E
0F3E
0FFC
0EF8
0E00
0E00
0E00
0E00
0E00
0E00
0E00
0E00
0E00
0E00
0F00
0F00
0F00
1F00
7F80
00E0
ENDCHAR
STARTCHAR ydieresis
ENCODING 255
SWIDTH 659 0
DWIDTH 18 0
BBX 18 33 0 -13
BITMAP
00EE00
00EE00
00EE00
000000
000000
030000
060040
3C3F80
F80F00
380700
380700
380700
3C0700
1C0700
1C0700
1C0F00
0E0F00
0F1700
07F600
03C600
000600
000600
000600
000C00
000C00
0F0C00
1F0800
171800
271000
203000
102000
18C000
0F8000
ENDCHAR
STARTCHAR dotlessi
ENCODING 305
SWIDTH 301 0
DWIDTH 8 0
BBX 7 15 1 2
BITMAP
04
1C
FC
38
38
38
38
38
38
38
38
38
38
38
FE
ENDCHAR
STARTCHAR OE
ENCODING 338
SWIDTH 1132 0
DWIDTH 32 0
BBX 32 28 0 -5
BITMAP
00000010
000000F0
01F8FFF0
070E7C10
1C03B810
3801F808
3800F800
70007800
70007800
F0007820
F0003820
F0003820
F0003860
F0003FE0
F8003C20
F8003820
78003C20
7C007C00
3E007C01
3F00FC01
1FC3BC02
07FF3C02
01FC3C02
00003C06
00003C1E
00003FFE
0000F000
00030000
ENDCHAR
STARTCHAR oe
ENCODING 339
SWIDTH 798 0
DWIDTH 22 0
BBX 22 13 0 2
BITMAP
1F03E0
33C630
60CC30
E0FC30
E07830
E07860
E07FC8
E07C08
707C04
707E08
384F18
0F87F0
0003E0
ENDCHAR
STARTCHAR circumflex
ENCODING 710
SWIDTH 483 0
DWIDTH 14 0
BBX 11 7 1 18
BITMAP
0400
0600
0B00
1180
30C0
2060
C000
ENDCHAR
STARTCHAR caron
ENCODING 711
SWIDTH 428 0
DWIDTH 12 0
BBX 10 8 1 19
BITMAP
0080
80C0
4100
2200
3E00
1C00
0800
0800
ENDCHAR
STARTCHAR ring
ENCODING 730
SWIDTH 330 0
DWIDTH 9 0
BBX 6 7 1 23
BITMAP
78
4C
84
84
CC
F8
78
ENDCHAR
STARTCHAR tilde
ENCODING 732
SWIDTH 433 0
DWIDTH 12 0
BBX 10 5 1 20
BITMAP
3000
5800
8E40
87C0
0380
ENDCHAR
STARTCHAR mu.dup1
ENCODING 956
SWIDTH 634 0
DWIDTH 18 0
BBX 16 24 1 -9
BITMAP
C000
C020
C0E0
C0E0
C070
C070
C070
E072
E071
E071
F071
F8B9
EF1F
E00E
E000
E000
E000
E000
E000
E000
E000
F000
F000
7000
ENDCHAR
STARTCHAR endash
ENCODING 8211
SWIDTH 436 0
DWIDTH 12 0
BBX 10 1 1 5
BITMAP
FFC0
ENDCHAR
STARTCHAR emdash
ENCODING 8212
SWIDTH 651 0
DWIDTH 18 0
BBX 16 2 1 6
BITMAP
03FF
FE00
ENDCHAR
STARTCHAR quoteleft
ENCODING 8216
SWIDTH 287 0
DWIDTH 8 0
BBX 6 9 1 14
BITMAP
0C
30
60
60
F0
F8
F8
F8
70
ENDCHAR
STARTCHAR quoteright
ENCODING 8217
SWIDTH 291 0
DWIDTH 8 0
BBX 5 10 1 13
BITMAP
70
F0
F8
F8
78
38
18
10
30
60
ENDCHAR
STARTCHAR quotesinglbase
ENCODING 8218
SWIDTH 272 0
DWIDTH 8 0
BBX 5 9 1 -4
BITMAP
70
F8
F8
78
38
10
10
20
40
ENDCHAR
STARTCHAR quotedblleft
ENCODING 8220
SWIDTH 445 0
DWIDTH 12 0
BBX 10 10 1 13
BITMAP
0400
1880
3180
6100
6300
F380
F3C0
FBC0
F980
7000
ENDCHAR
STARTCHAR quotedblright
ENCODING 8221
SWIDTH 444 0
DWIDTH 12 0
BBX 10 10 1 14
BITMAP
7000
F980
FBC0
7BC0
3BC0
11C0
3080
2180
4300
0400
ENDCHAR
STARTCHAR quotedblbase
ENCODING 8222
SWIDTH 482 0
DWIDTH 14 0
BBX 11 11 1 -8
BITMAP
7000
F9C0
FBE0
FBE0
7BE0
39E0
18C0
10C0
1180
2100
0200
ENDCHAR
STARTCHAR bullet
ENCODING 8226
SWIDTH 351 0
DWIDTH 10 0
BBX 7 7 1 8
BITMAP
38
7C
FE
FE
FE
FC
78
ENDCHAR
STARTCHAR guilsinglleft
ENCODING 8249
SWIDTH 465 0
DWIDTH 13 0
BBX 11 17 1 -2
BITMAP
0080
0100
0100
0200
0600
0C00
1C00
3800
7800
FC00
1E00
0E00
0700
0380
0180
00C0
0020
ENDCHAR
STARTCHAR guilsinglright
ENCODING 8250
SWIDTH 449 0
DWIDTH 13 0
BBX 10 18 1 -3
BITMAP
4000
2000
3000
1000
1C00
0E00
0F00
07C0
0F80
0F00
1C00
1800
3000
3000
6000
4000
4000
8000
ENDCHAR
STARTCHAR fraction
ENCODING 8260
SWIDTH 406 0
DWIDTH 11 0
BBX 19 26 -4 0
BITMAP
000020
000040
0000C0
000080
000100
000300
000600
000400
000800
001800
003000
002000
006000
00C000
008000
010000
030000
060000
040000
080000
180000
100000
200000
600000
400000
800000
ENDCHAR
STARTCHAR foursuperior
ENCODING 8308
SWIDTH 473 0
DWIDTH 13 0
BBX 12 17 1 9
BITMAP
0400
0400
0C00
0C00
1C00
1E00
2E00
2640
4640
46C0
87C0
FFC0
0700
0700
0780
1FF0
2000
ENDCHAR
STARTCHAR Euro
ENCODING 8364
SWIDTH 799 0
DWIDTH 22 0
BBX 24 23 -1 -1
BITMAP
000001
000FC1
00383E
00F01E
01E00C
03C00C
038004
078004
078604
0F9800
0FE000
0F0C00
7F7000
0F8000
3F0000
7F0010
8F8010
078010
078010
03C020
01F060
00FFC0
003F00
ENDCHAR
STARTCHAR minus
ENCODING 8722
SWIDTH 436 0
DWIDTH 12 0
BBX 10 1 1 5
BITMAP
FFC0
ENDCHAR
STARTCHAR f_f
ENCODING 64256
SWIDTH 467 0
DWIDTH 13 0
BBX 16 41 1 -9
BITMAP
03C0
07E0
09E0
09E0
18C0
103C
10CE
108E
318F
311F
331F
331E
331C
3300
3300
3300
3FF0
7300
B300
3300
3300
3380
3180
3980
3980
39C0
39C0
38C0
18C0
18E0
1CF0
1CFC
1CE0
1D80
1C00
1C00
1E00
1E00
1F00
3F00
FFE0
ENDCHAR
STARTCHAR .notdef
ENCODING -1
SWIDTH 270 0
DWIDTH 8 0
BBX 6 17 1 0
BITMAP
FC
84
84
84
84
84
84
84
84
84
84
84
84
84
84
84
FC
ENDCHAR
STARTCHAR .null
ENCODING -1
SWIDTH 0 0
DWIDTH 0 0
BBX 1 1 0 0
BITMAP
00
ENDCHAR
STARTCHAR nonmarkingreturn
ENCODING -1
SWIDTH 270 0
DWIDTH 8 0
BBX 1 1 0 0
BITMAP
00
ENDCHAR
STARTCHAR dieresis.case
ENCODING -1
SWIDTH 393 0
DWIDTH 11 0
BBX 8 4 1 21
BITMAP
60
F7
F7
67
ENDCHAR
STARTCHAR o.cmp
ENCODING -1
SWIDTH 400 0
DWIDTH 11 0
BBX 19 22 1 5
BITMAP
0001C0
0001C0
0001E0
0000C0
000040
000040
000080
000080
000100
000200
000400
001800
1FE000
738000
718000
E1C000
E1C000
E1C000
E1C000
E1C000
738000
1E0000
ENDCHAR
STARTCHAR n_n
ENCODING -1
SWIDTH 1024 0
DWIDTH 29 0
BBX 28 19 0 -1
BITMAP
08000000
18000000
78780000
F8FC2000
191DE000
1A1E6780
1E0E6FC0
1C0E79E0
1C0E70E0
0C0E70E0
0C0E60E0
0C0C60E0
0C0C60E0
0C0CF1E0
0C1CF9C0
0E7D07E0
3F1E0030
00070000
00010000
ENDCHAR
STARTCHAR a_a
ENCODING -1
SWIDTH 911 0
DWIDTH 26 0
BBX 26 20 1 -3
BITMAP
0003E000
00063000
000C1800
3C0E1800
660F1C00
430E1C00
E3000C00
E1000C00
6107DC00
011C3C00
1F981C00
79BB1C00
61BB1C00
E1B91C00
E3BD3C00
E3DFDC00
FCEF9C40
787C0E40
00000E40
00000780
ENDCHAR
STARTCHAR t_h
ENCODING -1
SWIDTH 854 0
DWIDTH 24 0
BBX 24 36 0 -6
BITMAP
000C00
001C00
007C00
03FC00
003800
001800
001800
001800
009800
019800
031800
0F1800
FFFE00
0F1800
0E1800
0E3800
0E39F0
0E3A1C
0E3C1C
0E380E
0E380E
0E39CE
0E39CE
0E39CE
0638CE
0730CE
03308E
01F10E
00FE0E
00780C
00781C
01FC1C
03071C
00007C
0001FE
000007
ENDCHAR
STARTCHAR s_s
ENCODING -1
SWIDTH 654 0
DWIDTH 18 0
BBX 18 24 0 -4
BITMAP
001040
03E040
0E4F80
0C5880
0C7880
0C3880
0E3880
073800
039C00
01DC00
01EE00
00FF00
007700
203380
63BBC0
63B3C0
6731C0
E631C0
9C61C0
07C1C0
0203C0
020380
018700
007C00
ENDCHAR
STARTCHAR t_t
ENCODING -1
SWIDTH 569 0
DWIDTH 16 0
BBX 16 25 0 -2
BITMAP
00C0
00C0
04C0
05C0
0DCC
0DF0
3FC0
FFC0
3DC0
3980
3980
3980
3980
3980
39CE
39CE
38CF
38E3
3862
183C
1818
1C3C
0C3C
0638
01F0
ENDCHAR
STARTCHAR e_e
ENCODING -1
SWIDTH 782 0
DWIDTH 22 0
BBX 21 16 0 0
BITMAP
0F0780
399CC0
71B860
60B060
E1F060
E1F060
E17060
E37060
E67040
F870D0
707088
703908
383A08
1E1C18
07FFF0
0007E0
ENDCHAR
STARTCHAR o_o
ENCODING -1
SWIDTH 751 0
DWIDTH 21 0
BBX 28 24 0 2
BITMAP
000000E0
000000E0
000000F0
00000060
00000020
00000020
00000020
00000040
000000C0
00000080
00000300
0F800C00
38CDF000
7078C000
7030E000
E0707000
E0707000
E0707000
E0707000
E070E000
E070C000
606F8000
30C00000
1F000000
ENDCHAR
STARTCHAR l_l
ENCODING -1
SWIDTH 573 0
DWIDTH 16 0
BBX 18 27 -2 -3
BITMAP
020200
061E00
0E7E00
3E1E00
4E1E00
0E0E00
0E0E00
0E0E00
0E0E00
0E0E00
0E0E00
0E0E00
0E0E00
0E0E00
0E0E00
0E0E00
0E0E00
0E0E00
0E0E00
0E0F00
0E0F00
0E0F00
0E3FC0
0E0000
FF0000
0F0000
01C000
ENDCHAR
STARTCHAR z_z
ENCODING -1
SWIDTH 875 0
DWIDTH 25 0
BBX 25 19 -1 -2
BITMAP
0080C000
00FF8000
01038000
38130000
27E30000
21E70000
23C60000
038E0000
078C0000
071C2000
0F1C2000
0E382380
1C382380
3C7FE780
38000380
70000380
7FF00380
C03F0300
0001FC00
ENDCHAR
STARTCHAR j_j
ENCODING -1
SWIDTH 577 0
DWIDTH 16 0
BBX 18 38 -3 -18
BITMAP
000C00
001E00
001E00
01CC00
01C000
01C600
007F00
002F00
1FE700
01E780
00E380
00F380
00F380
007180
007180
0071C0
0071C0
0031C0
0030C0
0030C0
0030C0
0030C0
0030C0
0030C0
3830C0
7C30C0
FC20C0
F820C0
C060C0
8060C0
804080
80C080
41C080
3EE180
00F100
00F300
00FE00
007800
ENDCHAR
STARTCHAR f_b
ENCODING -1
SWIDTH 731 0
DWIDTH 21 0
BBX 21 37 -1 -5
BITMAP
007800
018C00
010C00
020C00
020C00
063C00
067C00
067C00
067C00
060C00
0E7C00
0E3C00
0FFC00
FE0C00
0E0C00
0E0C00
0E0C00
0E0C00
0E0C00
0E0C00
0E0C00
0E0C00
0E0DE0
0E0E70
0E0C38
0E0C38
0E0C38
0E0C38
0E0C38
0E0C70
0E1FE0
0E6000
0F0000
0F0000
0FE000
380000
400000
ENDCHAR
STARTCHAR f_k
ENCODING -1
SWIDTH 708 0
DWIDTH 20 0
BBX 20 31 1 -3
BITMAP
008000
018000
078000
3FF000
431C00
071C00
093C00
093C00
19BC00
19B800
118000
118000
318000
719800
B187C0
318400
318800
319000
31B000
31F000
31B840
31B820
319C10
319C10
318F30
31C7F0
31C3E0
31C000
F9C000
03E000
1FFC00
ENDCHAR
STARTCHAR f_h
ENCODING -1
SWIDTH 873 0
DWIDTH 24 0
BBX 25 37 -1 -5
BITMAP
00F00000
01980000
030C0000
020C0000
021C0000
067C0000
06FC0000
06F90000
04730000
0C0F0000
0C3F0000
0E070000
0FE20000
3F020000
DE020000
0E060000
0E060000
0E060000
0E060000
0E060000
0E067800
0E069C00
0E070E00
0E070E00
0E060E00
0E060E00
0E060E00
0E060E00
0E060E00
0E060E00
0E0E0E00
0E0E1F80
0E7F2000
0F018000
0FE00000
38000000
40000000
ENDCHAR
ENDFONT
